<svg width="41" height="39" viewBox="0 0 41 39" fill="none" xmlns="http://www.w3.org/2000/svg">
<rect x="0.5" y="0.5" width="39.625" height="38" rx="19" stroke="white"/>
<path fill-rule="evenodd" clip-rule="evenodd" d="M25.1666 22.0465C26.5749 21.0217 27.6228 19.5775 28.1601 17.9207C28.6974 16.2639 28.6966 14.4796 28.1578 12.8234C27.619 11.1671 26.5698 9.72383 25.1605 8.70034C23.7512 7.67684 22.0542 7.12561 20.3125 7.12561C18.5708 7.12561 16.8738 7.67684 15.4645 8.70034C14.0552 9.72383 13.006 11.1671 12.4672 12.8234C11.9284 14.4796 11.9276 16.2639 12.4649 17.9207C13.0022 19.5775 14.0501 21.0217 15.4584 22.0465C13.86 22.6217 12.4781 23.6762 11.5012 25.0659C10.5243 26.4557 10 28.113 10 29.8118V30.843C10 31.1165 10.1086 31.3788 10.302 31.5722C10.4954 31.7656 10.7577 31.8743 11.0312 31.8743C11.3048 31.8743 11.5671 31.7656 11.7605 31.5722C11.9539 31.3788 12.0625 31.1165 12.0625 30.843V29.8118C12.0625 28.1707 12.7144 26.5969 13.8748 25.4365C15.0352 24.2762 16.609 23.6243 18.25 23.6243H22.375C24.016 23.6243 25.5898 24.2762 26.7502 25.4365C27.9106 26.5969 28.5625 28.1707 28.5625 29.8118V30.843C28.5625 31.1165 28.6711 31.3788 28.8645 31.5722C29.0579 31.7656 29.3202 31.8743 29.5938 31.8743C29.8673 31.8743 30.1296 31.7656 30.323 31.5722C30.5164 31.3788 30.625 31.1165 30.625 30.843V29.8118C30.625 28.113 30.1007 26.4557 29.1238 25.0659C28.1469 23.6762 26.765 22.6217 25.1666 22.0465ZM14.125 15.3743C14.125 13.7332 14.7769 12.1594 15.9373 10.9991C17.0977 9.83867 18.6715 9.18677 20.3125 9.18677C21.9535 9.18677 23.5273 9.83867 24.6877 10.9991C25.8481 12.1594 26.5 13.7332 26.5 15.3743C26.5 17.0153 25.8481 18.5891 24.6877 19.7495C23.5273 20.9099 21.9535 21.5618 20.3125 21.5618C18.6715 21.5618 17.0977 20.9099 15.9373 19.7495C14.7769 18.5891 14.125 17.0153 14.125 15.3743Z" fill="white"/>
</svg>
